Coordinates
version=1
nRows=11
nColumns=40
inDegrees=yes

Units are S.I. units (second, meters, Newtons, ...)
Angles are in degrees.

endheader
time	pelvis_tilt	pelvis_list	pelvis_rotation	pelvis_tx	pelvis_ty	pelvis_tz	hip_flexion_r	hip_adduction_r	hip_rotation_r	knee_angle_r	knee_angle_r_beta	ankle_angle_r	subtalar_angle_r	mtp_angle_r	hip_flexion_l	hip_adduction_l	hip_rotation_l	knee_angle_l	knee_angle_l_beta	ankle_angle_l	subtalar_angle_l	mtp_angle_l	lumbar_extension	lumbar_bending	lumbar_rotation	arm_flex_r	arm_add_r	arm_rot_r	elbow_flex_r	pro_sup_r	wrist_flex_r	wrist_dev_r	arm_flex_l	arm_add_l	arm_rot_l	elbow_flex_l	pro_sup_l	wrist_flex_l	wrist_dev_l
      2.94000000	     -2.46924180	     -4.74586188	      1.50577663	      0.93450218	      0.91458893	      0.54079823	     16.94249119	      3.41517830	     -6.98949789	     29.93297409	     29.93297409	     17.29860577	     -5.15585545	     -1.76042580	     31.01239785	    -13.75076986	      6.65269718	     65.94962747	     65.94962747	      6.10938048	    -17.59272116	      8.92433240	    -12.29298866	      4.78910680	     -0.67930914	     13.22943466	    -19.18872607	     -3.92736594	     51.29440102	     45.40024139	      0.00000000	      0.00000000	      3.21061637	     -8.02454900	      0.32085404	     25.43769917	     45.41887008	      0.00000000	      0.00000000
      2.96192857	     -2.25604235	     -4.59360708	      2.43738606	      0.93399944	      0.91344652	      0.54298638	     16.79485585	      3.45868691	     -7.03165079	     30.61572288	     30.61572288	     17.75378549	     -6.53350658	     -1.71605597	     32.19004868	    -13.21045490	      7.25185403	     65.92278532	     65.92278532	      6.58092528	    -18.04788954	      9.15030454	    -12.36728009	      4.61926209	     -0.18318221	     16.56968938	    -19.44956789	     -4.31622765	     52.97393645	     45.37730388	      0.00000000	      0.00000000	      0.85356552	     -7.59111325	      0.64769377	     24.52256670	     45.32663682	      0.00000000	      0.00000000
      2.98385714	     -2.01783915	     -4.46179992	      3.43031717	      0.93340643	      0.91251293	      0.54504180	     16.54393927	      3.54060749	     -7.11251783	     31.15581970	     31.15581970	     18.13495932	     -7.95240889	     -1.58070734	     33.28444103	    -12.69060261	      7.77921029	     65.50126250	     65.50126250	      7.11314603	    -18.37581095	      9.68705922	    -12.47943070	      4.49936966	      0.20916053	     20.22413218	    -19.74875057	     -4.70584371	     54.52799238	     45.36067020	      0.00000000	      0.00000000	     -1.66768527	     -7.30715916	      1.08176014	     23.75053959	     45.20525343	      0.00000000	      0.00000000
      3.00578571	     -1.82537394	     -4.31789458	      4.48708065	      0.93273308	      0.91190738	      0.54685133	     16.21892187	      3.59684769	     -7.28327133	     31.47636129	     31.47636129	     18.45542271	     -9.25835344	     -1.33524064	     34.27583995	    -12.15595597	      8.20039753	     64.53067429	     64.53067429	      7.72073153	    -18.58670941	     10.62197259	    -12.56919768	      4.40214389	      0.50812740	     24.16465274	    -20.02347633	     -5.05846758	     55.67412006	     45.35944955	      0.00000000	      0.00000000	     -4.28960563	     -7.16189440	      1.77980040	     23.32734305	     45.02436706	      0.00000000	      0.00000000
      3.02771429	     -1.70969429	     -4.13904064	      5.59519990	      0.93184299	      0.91166472	      0.54813980	     15.88655350	      3.52370687	     -7.68482793	     31.63689943	     31.63689943	     18.86771416	    -10.12826014	     -0.76027616	     35.18004539	    -11.52886713	      8.51918414	     62.99688102	     62.99688102	      8.69662723	    -18.67113780	     12.98876340	    -12.57356958	      4.28340463	      0.27197166	     29.28332528	    -19.96981727	     -4.83538923	     54.23475992	     45.44445875	      0.00000000	      0.00000000	     -7.96047719	     -7.76673471	      5.72915728	     25.52692623	     44.22749247	      0.00000000	      0.00000000
      3.04964286	     -1.81772091	     -4.00009648	      6.70553053	      0.93084769	      0.91172524	      0.54905382	     15.66515995	      3.39429939	     -8.31148823	     31.52734267	     31.52734267	     18.96869946	    -10.66885936	     -0.66926019	     35.95891624	    -11.06285151	      8.53851816	     60.54266839	     60.54266839	      8.81973574	    -18.62074604	     13.18422570	    -12.36673157	      4.19894791	      1.39479177	     32.32454784	    -21.30426034	     -5.30144759	     55.27590017	     45.44462312	      0.00000000	      0.00000000	     -9.69327477	     -7.71453434	      5.83831224	     24.93583822	     44.18176017	      0.00000000	      0.00000000
      3.07157143	     -1.74070915	     -3.76818696	      7.87202450	      0.92972758	      0.91260159	      0.54943008	     15.02632334	      3.25197121	     -8.76898555	     31.02149205	     31.02149205	     19.02059268	    -11.48827187	     -0.41726622	     36.16051910	    -10.49675814	      8.43304265	     57.26522668	     57.26522668	      7.93531722	    -18.81641768	     11.85592361	    -12.46406575	      4.14534651	      1.30653371	     36.55798418	    -21.43532728	     -5.50648914	     56.40648224	     45.45736652	      0.00000000	      0.00000000	    -12.72742324	     -9.38738975	     16.49388433	     27.45082006	     42.74612651	      0.00000000	      0.00000000
      3.09350000	     -1.92708167	     -3.54042916	      9.01145120	      0.92844279	      0.91374713	      0.54929284	     14.56824012	      2.96914625	     -9.49853748	     30.32851410	     30.32851410	     18.95530279	    -11.75712724	     -0.26455338	     36.29666345	     -9.90701820	      8.15721179	     53.30281995	     53.30281995	      7.06978967	    -18.71367466	     11.12375648	    -12.32376774	      4.03170638	      1.52620749	     40.14770881	    -21.91390896	     -6.03905660	     57.74382768	     45.45395855	      0.00000000	      0.00000000	    -14.67679958	     -9.44629804	     16.98313718	     27.84052560	     42.73330287	      0.00000000	      0.00000000
      3.11542857	     -2.18543531	     -3.30352300	     10.09076327	      0.92709575	      0.91525228	      0.54870247	     14.04018220	      2.64183177	    -10.28470097	     29.36641682	     29.36641682	     18.76689335	    -11.80643766	     -0.28106936	     36.04944894	     -9.35133088	      7.66705351	     48.55186885	     48.55186885	      5.23304531	    -18.53755491	      8.55815239	    -12.11985007	      3.90378887	      1.68790689	     43.85752126	    -22.44203336	     -6.02863455	     58.55628769	     45.45022527	      0.00000000	      0.00000000	    -16.71426414	     -9.77680481	     18.17012387	     29.30274733	     42.66840451	      0.00000000	      0.00000000
      3.13735714	     -2.51485636	     -3.04716987	     11.11265083	      0.92570306	      0.91706745	      0.54768414	     13.46408274	      2.28381576	    -11.03015556	     28.19973380	     28.19973380	     18.55695313	    -11.75522778	     -0.04399018	     35.64910701	     -8.64100998	      7.27887324	     43.60391430	     43.60391430	      4.23545219	    -17.89876298	      8.90733882	    -11.87491189	      3.75734772	      2.06356623	     47.17038996	    -23.16226973	     -6.21623526	     59.85212113	     45.43117466	      0.00000000	      0.00000000	    -18.02020719	     -9.68914687	     18.50342282	     29.32060080	     42.62556716	      0.00000000	      0.00000000
      3.15928571	     -2.87025788	     -2.81774120	     12.04006994	      0.92434399	      0.91896202	      0.54639048	     12.84650688	      1.93180350	    -11.84182733	     26.91367318	     26.91367318	     18.31936984	    -11.43380139	      0.09851793	     35.01248711	     -8.02419728	      6.71923316	     38.41313153	     38.41313153	      2.97622148	    -16.66521834	      8.86865015	    -11.61941117	      3.60356587	      2.25508560	     50.48923571	    -23.59581579	     -6.20055632	     61.24289722	     45.40102241	      0.00000000	      0.00000000	    -19.34913189	     -9.57750982	     18.89321925	     29.69661391	     42.57056108	      0.00000000	      0.00000000
